<svg xmlns="http://www.w3.org/2000/svg" viewBox="0 0 2453.69 385.45"><defs><style>.cls-1{fill:#aa9144;}</style></defs><path class="cls-1" d="M350.45,313.12c-31.28,43.07-84.32,72.33-154,72.33C73.84,385.45,0,295.38,0,192.73,0,92.17,70.18,0,195.34,0,270.08,0,325,32.76,354.84,81.1l-71.14,48C270,98,240.27,76.46,196.4,76.46c-70.19,0-110,55.51-110,116.27,0,64.42,44.51,116.26,111,116.26,39.06,0,67.51-17.82,82.86-43.22ZM817.18,376,684.66,9.42h-78L475.71,376h90.6l14.15-44.51h130.4L725,376ZM689.91,265h-89l45-150.84ZM985.25,376h84.84V274.43h39.81L1174.84,376h98.45L1200,260.29c45.56-21.47,72.79-67,72.79-118.36,0-71.23-52.37-132.5-133.54-132.5h-154Zm201.63-234.09c0,34-23,63.37-58.65,63.37h-58.14V78.56h58.14c35.61,0,58.65,29.33,58.65,63.37M1501.09,376h84.84V82.75h83.28V9.43H1418.34V82.75h82.75ZM2066.68,77.51V9.43H1843.06V376h223.62V308H1927.9V227.29h104.39v-66.5H1927.9V77.51Zm282.79,225.2V9.43h-84.84V376h189.06V302.71Z"/></svg>