<svg xmlns="http://www.w3.org/2000/svg" viewBox="0 0 24 19.47">
  <title>Twitter icon</title>
  <path d="M24,4.5a10.07,10.07,0,0,1-2.45,2.55v.64A14,14,0,0,1,0,19.52a7.62,7.62,0,0,0,1.17,0,9.81,9.81,0,0,0,6.11-2.11A4.91,4.91,0,0,1,2.69,14a5,5,0,0,0,2.18-.09,4.93,4.93,0,0,1-4-4.83h0a5,5,0,0,0,2.27.56A4.93,4.93,0,0,1,1,5.56a4.82,4.82,0,0,1,.69-2.43A14.05,14.05,0,0,0,11.81,8.2a5,5,0,0,1-.18-1.08,4.93,4.93,0,0,1,8.45-3.38,10.1,10.1,0,0,0,3.13-1.2A5,5,0,0,1,21,5.26a9.77,9.77,0,0,0,2.82-.78" transform="translate(0 -2.26)"/>
</svg>
