<svg xmlns="http://www.w3.org/2000/svg" viewBox="0 0 647.28 65.7"><title>The Lookout logo</title><path fill="#b09c59" d="M0,1H53.33V16.38H35.49V64.7H17.84V16.38H0ZM100.28,24.21H80.44V1h-18V64.7h18V39.59h19.84V64.7h18V1h-18ZM147.51,39h18.84V24.3H147.51V15.83h31.31V1H130V64.7h49.41V49.87H147.51ZM236.23,1H218.4V64.7h46V49.32H236.23Zm90.82,31.76c0,21.21-12.28,32.94-29.57,32.94s-29.4-11.55-29.4-32.76S280.37,0,297.66,0,327.05,11.56,327.05,32.76Zm-18.29.18c0-11.46-4.18-17.56-11.28-17.56s-11.1,5.91-11.1,17.38,4.18,17.56,11.28,17.56S308.76,44.41,308.76,32.94Zm83.72-.18c0,21.21-12.28,32.94-29.57,32.94s-29.4-11.55-29.4-32.76S345.8,0,363.09,0,392.48,11.56,392.48,32.76Zm-18.29.18c0-11.46-4.19-17.56-11.28-17.56S351.8,21.29,351.8,32.76,356,50.32,363.09,50.32,374.19,44.41,374.19,32.94ZM458.18,1H436.71l-5.1,6.46C427.52,12.65,422,20,419.33,24.21c.18-4.64.27-10.38.27-15.75V1h-18V64.7h18V45.5l6.55-7.92L439.44,64.7h20.93L439,23.48Zm62.43,31.76C520.61,54,508.32,65.7,491,65.7s-29.39-11.55-29.39-32.76S473.92,0,491.22,0,520.61,11.56,520.61,32.76Zm-18.29.18c0-11.46-4.19-17.56-11.29-17.56s-11.1,5.91-11.1,17.38,4.19,17.56,11.29,17.56S502.32,44.41,502.32,32.94Zm64.88,4.55c0,7.83-2.91,12.65-9.83,12.65s-10-4.82-10-12.65V1h-18V37.49c0,20.21,11.74,28.21,27.76,28.21s28.12-8,28.12-28.21V1h-18ZM594,1V16.38h17.84V64.7h17.65V16.38h17.84V1Z"/></svg>